dummy_motion.mot										
nRows=68										
nColumns=11										
name dummy_motion.mot										
datacolumns 11										
datarows 68										
range 0.01 0.68										
endheader										
time	pelvis_tilt	pelvis_tx	pelvis_ty	hip_flexion_r	knee_angle_r	ankle_angle_r	hip_flexion_l	knee_angle_l	ankle_angle_l	lumbar_extension
0.01	0	0	0	89.5971984	-92.67490075	30.61523652	89.5971984	-92.67490075	30.61523652	0
0.02	0	0	0	21.87638426	-47.78793369	-10.77565961	21.87638426	-47.78793369	-10.77565961	0
0.03	0	0	0	-64.89486587	-107.4577608	-17.79694265	-64.89486587	-107.4577608	-17.79694265	0
0.04	0	0	0	-38.32815126	-15.58677792	33.23928075	-38.32815126	-15.58677792	33.23928075	0
0.05	0	0	0	29.62624503	-108.6070322	22.78228857	29.62624503	-108.6070322	22.78228857	0
0.06	0	0	0	88.69656658	-81.57888089	-33.97965225	88.69656658	-81.57888089	-33.97965225	0
0.07	0	0	0	-48.30717561	-53.38935336	-10.52398507	-48.30717561	-53.38935336	-10.52398507	0
0.08	0	0	0	19.58543991	-40.10298294	34.52648316	19.58543991	-40.10298294	34.52648316	0
0.09	0	0	0	72.09436981	-117.4021995	2.414003986	72.09436981	-117.4021995	2.414003986	0
0.1	0	0	0	-40.17759694	-93.68003154	38.11898301	-40.17759694	-93.68003154	38.11898301	0
0.11	0	0	0	-18.69313212	-56.82175911	28.57833491	-18.69313212	-56.82175911	28.57833491	0
0.12	0	0	0	-61.33991736	9.694928425	-13.71612197	-61.33991736	9.694928425	-13.71612197	0
0.13	0	0	0	-34.41627548	-91.27541224	-23.23823897	-34.41627548	-91.27541224	-23.23823897	0
0.14	0	0	0	24.67037623	-112.8984676	-49.37096538	24.67037623	-112.8984676	-49.37096538	0
0.15	0	0	0	0.287582792	-92.23460926	33.48109595	0.287582792	-92.23460926	33.48109595	0
0.16	0	0	0	12.7047425	-88.4402176	28.32402669	12.7047425	-88.4402176	28.32402669	0
0.17	0	0	0	-20.41263232	-86.71939022	39.55518702	-20.41263232	-86.71939022	39.55518702	0
0.18	0	0	0	-15.48692801	-61.0046832	-18.78490231	-15.48692801	-61.0046832	-18.78490231	0
0.19	0	0	0	26.23773082	-107.0725533	2.91962256	26.23773082	-107.0725533	2.91962256	0
0.2	0	0	0	-21.29164726	-100.3737854	38.16248574	-21.29164726	-100.3737854	38.16248574	0
0.21	0	0	0	48.26672531	-78.173233	-38.78060507	48.26672531	-78.173233	-38.78060507	0
0.22	0	0	0	80.37592188	-44.32577414	-5.386573187	80.37592188	-44.32577414	-5.386573187	0
0.23	0	0	0	-30.95069711	-100.088282	-10.07526287	-30.95069711	-100.088282	-10.07526287	0
0.24	0	0	0	41.0766952	-99.50151893	18.90791864	41.0766952	-99.50151893	18.90791864	0
0.25	0	0	0	-64.41253046	-52.94384398	-22.10369769	-64.41253046	-52.94384398	-22.10369769	0
0.26	0	0	0	-42.6474324	-117.3586842	26.48713931	-42.6474324	-117.3586842	26.48713931	0
0.27	0	0	0	3.244774384	-86.98912433	32.63296173	3.244774384	-86.98912433	32.63296173	0
0.28	0	0	0	-53.3043389	-33.45651594	-31.79119614	-53.3043389	-33.45651594	-31.79119614	0
0.29	0	0	0	83.61713741	-85.31001975	-21.67950524	83.61713741	-85.31001975	-21.67950524	0
0.3	0	0	0	-54.75860297	7.878251764	34.84910619	-54.75860297	7.878251764	34.84910619	0
0.31	0	0	0	11.5303553	-65.25810036	-40.57316918	11.5303553	-65.25810036	-40.57316918	0
0.32	0	0	0	64.08404937	-45.87923252	23.15763904	64.08404937	-45.87923252	23.15763904	0
0.33	0	0	0	71.22509079	-12.3460754	32.45983793	71.22509079	-12.3460754	32.45983793	0
0.34	0	0	0	80.22396064	-117.374859	-25.27540505	80.22396064	-117.374859	-25.27540505	0
0.35	0	0	0	-41.98335841	-21.37165108	38.38543277	-41.98335841	-21.37165108	38.38543277	0
0.36	0	0	0	70.20058987	-110.0202874	27.97251463	70.20058987	-110.0202874	27.97251463	0
0.37	0	0	0	76.23643254	-23.2606872	-42.19310509	76.23643254	-23.2606872	-42.19310509	0
0.38	0	0	0	-53.79665855	-48.88736874	35.85473352	-53.79665855	-48.88736874	35.85473352	0
0.39	0	0	0	-63.98641639	-47.95166441	-29.50019502	-63.98641639	-47.95166441	-29.50019502	0
0.4	0	0	0	-52.07926479	-23.49792276	23.2669068	-52.07926479	-23.49792276	23.2669068	0
0.41	0	0	0	-69.56054791	-92.32950758	-28.41879771	-69.56054791	-92.32950758	-28.41879771	0
0.42	0	0	0	12.52481783	-76.37323752	-1.864685899	12.52481783	-76.37323752	-1.864685899	0
0.43	0	0	0	-43.13551354	9.946922646	7.487610182	-43.13551354	9.946922646	7.487610182	0
0.44	0	0	0	54.63910567	-104.6137156	18.55786547	54.63910567	-104.6137156	18.55786547	0
0.45	0	0	0	64.70640852	-25.6172689	-28.15467011	64.70640852	-25.6172689	-28.15467011	0
0.46	0	0	0	-61.0101077	-33.81116585	-38.01708317	-61.0101077	-33.81116585	-38.01708317	0
0.47	0	0	0	6.56394414	-5.565877903	1.182686526	6.56394414	-5.565877903	1.182686526	0
0.48	0	0	0	62.98540922	-52.15943349	-48.99701866	62.98540922	-52.15943349	-48.99701866	0
0.49	0	0	0	24.97861956	-103.9267414	-25.97485876	24.97861956	-103.9267414	-25.97485876	0
0.5	0	0	0	79.9570577	-111.0841374	-38.43637169	79.9570577	-111.0841374	-38.43637169	0
0.51	0	0	0	41.47856666	-75.99894696	3.680211826	41.47856666	-75.99894696	3.680211826	0
0.52	0	0	0	35.15581216	-53.32997273	11.60731072	35.15581216	-53.32997273	11.60731072	0
0.53	0	0	0	-3.194685762	-76.65855252	35.19625919	-3.194685762	-76.65855252	35.19625919	0
0.54	0	0	0	24.84568867	1.504219525	-48.17865349	24.84568867	1.504219525	-48.17865349	0
0.55	0	0	0	54.4247112	-32.777043	19.80596619	54.4247112	-32.777043	19.80596619	0
0.56	0	0	0	-6.445721824	-84.89359105	-26.73415006	-6.445721824	-84.89359105	-26.73415006	0
0.57	0	0	0	12.63058754	-50.04303983	-11.17942566	12.63058754	-50.04303983	-11.17942566	0
0.58	0	0	0	-65.40665779	-112.2200881	4.660921706	-65.40665779	-112.2200881	4.660921706	0
0.59	0	0	0	68.82690969	-95.01491633	-41.6932973	68.82690969	-95.01491633	-41.6932973	0
0.6	0	0	0	-48.99420485	-64.0497272	-17.37950245	-48.99420485	-64.0497272	-17.37950245	0
0.61	0	0	0	55.61439463	-7.804698392	-27.34716401	55.61439463	-7.804698392	-27.34716401	0
0.62	0	0	0	88.61934066	-3.971315026	-41.77911723	88.61934066	-3.971315026	-41.77911723	0
0.63	0	0	0	70.13039785	-85.5698918	-19.56660175	70.13039785	-85.5698918	-19.56660175	0
0.64	0	0	0	-44.764547	-20.40375725	-38.65459466	-44.764547	-20.40375725	-38.65459466	0
0.65	0	0	0	-43.47915227	-12.46035521	37.444152	-43.47915227	-12.46035521	37.444152	0
0.66	0	0	0	-69.943956	-60.35389276	-43.61182751	-69.943956	-60.35389276	-43.61182751	0
0.67	0	0	0	35.53513266	-37.4790277	0.481445227	35.53513266	-37.4790277	0.481445227	0
0.68	0	0	0	-37.13176157	-73.57493008	11.66304485	-37.13176157	-73.57493008	11.66304485	0
